<svg xmlns="http://www.w3.org/2000/svg" viewBox="0 0 516.131 58.174"><style>.st2{fill:#f9a220}.st3{fill:url(#SVGID_1_)}.st4{opacity:.5;fill:url(#SVGID_2_)}.st5{fill:url(#SVGID_3_)}.st7{fill:#fff}.st8{fill:#929497}</style><g id="Logo_on_black"><path class="st7" d="M119.41 3.316c0 .558-.029 1.058-.088 1.472-.068.424-.161.757-.296 1.011a1.5 1.5 0 0 1-.487.558 1.243 1.243 0 0 1-.655.177h-16.285v50.202c0 .245-.063.449-.181.63-.119.178-.329.322-.626.423a7.11 7.11 0 0 1-1.184.275c-.494.064-1.112.11-1.856.11-.715 0-1.328-.047-1.836-.11a7.14 7.14 0 0 1-1.213-.275c-.296-.101-.5-.245-.622-.423a1.107 1.107 0 0 1-.178-.63V6.534H77.611a1.22 1.22 0 0 1-.647-.177 1.311 1.311 0 0 1-.466-.558c-.122-.254-.219-.587-.296-1.011a8.792 8.792 0 0 1-.106-1.472c0-.57.034-1.069.106-1.499.077-.437.173-.787.296-1.053.119-.263.275-.462.466-.584.198-.114.409-.178.647-.178h40.273c.241 0 .456.064.655.178.186.122.352.322.487.584.135.266.228.616.296 1.053.058.43.088.929.088 1.499zm49.402 53.42c0 .245-.042.449-.144.63-.084.178-.274.331-.574.439-.301.127-.714.211-1.252.277-.537.058-1.256.092-2.148.092-.778 0-1.412-.034-1.903-.092-.49-.065-.884-.161-1.184-.294a1.527 1.527 0 0 1-.694-.561 3.288 3.288 0 0 1-.431-.897l-5.319-13.645a52.486 52.486 0 0 0-1.945-4.272c-.673-1.294-1.471-2.41-2.398-3.356a9.786 9.786 0 0 0-3.264-2.187c-1.251-.524-2.757-.785-4.516-.785h-5.151v24.651a.99.99 0 0 1-.203.63c-.135.178-.338.322-.625.423a6.48 6.48 0 0 1-1.158.275c-.495.064-1.112.11-1.861.11-.744 0-1.361-.047-1.852-.11a7.133 7.133 0 0 1-1.192-.275c-.296-.101-.498-.245-.626-.423a1.144 1.144 0 0 1-.173-.63V3.139c0-1.167.3-1.978.918-2.444.609-.46 1.255-.694 1.944-.694h12.301c1.463 0 2.681.043 3.649.114.968.069 1.843.161 2.618.251 2.236.384 4.211.997 5.928 1.83 1.714.833 3.155 1.89 4.322 3.179a12.803 12.803 0 0 1 2.613 4.406c.583 1.649.871 3.481.871 5.476 0 1.946-.263 3.679-.787 5.218-.519 1.531-1.268 2.889-2.253 4.068a14.925 14.925 0 0 1-3.535 3.066c-1.37.869-2.91 1.597-4.613 2.193.965.415 1.822.944 2.6 1.582a14.2 14.2 0 0 1 2.17 2.305 22.628 22.628 0 0 1 1.907 3.1 51.174 51.174 0 0 1 1.785 3.936l5.188 12.746c.419 1.075.685 1.832.808 2.259.111.436.179.769.179 1.006zm-11.591-40.671c0-2.266-.508-4.186-1.522-5.75-1.015-1.56-2.715-2.691-5.099-3.376-.749-.21-1.59-.357-2.528-.452-.942-.089-2.169-.131-3.692-.131h-6.491v19.511h7.519c2.029 0 3.775-.251 5.26-.74 1.476-.495 2.706-1.18 3.687-2.06a8.046 8.046 0 0 0 2.173-3.107c.461-1.193.693-2.494.693-3.895zm63.159 20.146c0 3.463-.498 6.555-1.514 9.27-1.01 2.722-2.457 5.014-4.343 6.895-1.878 1.877-4.169 3.298-6.871 4.267-2.694.978-5.767 1.46-9.201 1.46-3.147 0-6.005-.456-8.593-1.367-2.579-.909-4.799-2.253-6.651-4.033-1.849-1.776-3.269-4.005-4.267-6.665-.998-2.676-1.497-5.759-1.497-9.247V1.414c0-.236.055-.437.173-.622.118-.174.325-.312.613-.414a6.485 6.485 0 0 1 1.15-.263c.466-.077 1.082-.114 1.848-.114.706 0 1.307.037 1.806.114.495.069.888.161 1.167.263.275.102.478.24.596.414.118.185.177.385.177.622v34.442c0 2.648.321 4.951.965 6.914.651 1.971 1.582 3.607 2.798 4.912a11.53 11.53 0 0 0 4.407 2.954c1.712.658 3.645.993 5.793.993 2.199 0 4.16-.318 5.873-.976 1.725-.639 3.176-1.608 4.368-2.902 1.188-1.296 2.093-2.896 2.723-4.809.639-1.898.952-4.13.952-6.688V1.414c0-.236.058-.437.178-.622.118-.174.322-.312.613-.414a6.55 6.55 0 0 1 1.167-.263c.486-.077 1.099-.114 1.831-.114.706 0 1.298.037 1.779.114a5.78 5.78 0 0 1 1.146.263c.284.102.486.24.621.414.132.185.191.385.191.622v34.797zm43.414 5.256c0 2.657-.495 5.016-1.467 7.08a15.207 15.207 0 0 1-4.056 5.254c-1.733 1.443-3.771 2.53-6.113 3.257-2.347.724-4.863 1.092-7.574 1.092-1.894 0-3.645-.157-5.255-.488-1.62-.316-3.058-.705-4.326-1.174-1.265-.466-2.331-.944-3.189-1.438-.858-.495-1.45-.914-1.78-1.266-.343-.35-.592-.798-.748-1.331-.161-.54-.242-1.264-.242-2.165 0-.638.029-1.167.089-1.589.055-.423.143-.766.262-1.028.114-.262.262-.443.431-.546.177-.101.385-.151.613-.151.406 0 .985.251 1.725.74.744.497 1.695 1.04 2.862 1.613 1.162.589 2.567 1.135 4.207 1.632 1.646.512 3.544.77 5.697.77 1.628 0 3.126-.211 4.478-.654 1.353-.439 2.517-1.056 3.497-1.853a8.162 8.162 0 0 0 2.244-2.947c.516-1.163.778-2.487.778-3.971 0-1.606-.363-2.977-1.082-4.106-.732-1.137-1.687-2.131-2.884-2.991a25.365 25.365 0 0 0-4.085-2.354c-1.522-.714-3.091-1.445-4.689-2.186a48.509 48.509 0 0 1-4.673-2.466 19.714 19.714 0 0 1-4.056-3.184c-1.197-1.223-2.165-2.661-2.909-4.3-.74-1.642-1.112-3.616-1.112-5.912 0-2.363.43-4.461 1.294-6.308a12.855 12.855 0 0 1 3.576-4.652c1.528-1.248 3.346-2.207 5.457-2.859 2.104-.66 4.388-.985 6.828-.985 1.253 0 2.507.114 3.78.325 1.261.221 2.456.516 3.576.876a20.96 20.96 0 0 1 2.994 1.218c.863.452 1.447.82 1.718 1.099.28.275.46.49.545.651.094.161.166.368.221.609.058.249.106.546.131.9.029.347.05.795.05 1.344 0 .529-.03.994-.072 1.4-.039.41-.11.756-.199 1.032-.085.27-.212.481-.369.609a.866.866 0 0 1-.544.198c-.327 0-.82-.207-1.51-.617a50.198 50.198 0 0 0-2.508-1.374c-.99-.509-2.165-.968-3.51-1.396-1.357-.418-2.88-.635-4.567-.635-1.568 0-2.939.217-4.102.635-1.163.427-2.128.99-2.88 1.678a6.722 6.722 0 0 0-1.704 2.487 8.374 8.374 0 0 0-.567 3.062c0 1.569.364 2.919 1.092 4.059.727 1.137 1.695 2.141 2.9 3.01a25.99 25.99 0 0 0 4.128 2.397c1.543.727 3.116 1.468 4.714 2.214a61.7 61.7 0 0 1 4.715 2.438 20.144 20.144 0 0 1 4.131 3.143 14.392 14.392 0 0 1 2.913 4.283c.754 1.648 1.126 3.585 1.126 5.821zm47.801-38.158c0 .566-.03 1.056-.089 1.468-.064.419-.156.76-.291 1.01a1.38 1.38 0 0 1-.492.558 1.176 1.176 0 0 1-.649.177h-16.258V56.64c0 .237-.058.449-.18.623-.116.181-.327.325-.623.43a6.774 6.774 0 0 1-1.183.262c-.496.077-1.113.116-1.853.116-.719 0-1.332-.039-1.83-.116a6.644 6.644 0 0 1-1.206-.262c-.3-.105-.507-.249-.629-.43a1.107 1.107 0 0 1-.179-.623V6.521h-16.258c-.236 0-.452-.054-.648-.177a1.245 1.245 0 0 1-.469-.558 4.477 4.477 0 0 1-.293-1.01 8.601 8.601 0 0 1-.113-1.468c0-.563.041-1.07.113-1.492.078-.437.179-.791.293-1.053.119-.263.275-.462.469-.584.195-.114.411-.178.648-.178h40.199c.237 0 .458.064.649.178.19.122.364.322.492.584.135.263.227.616.291 1.053.059.422.089.93.089 1.493z"/><path class="st8" d="M356.316 16.957c0 2.896-.477 5.506-1.438 7.836-.957 2.326-2.316 4.313-4.094 5.945-1.772 1.645-3.95 2.915-6.533 3.807-2.58.897-5.653 1.341-9.241 1.341h-6.574v20.85c0 .245-.073.449-.204.63-.135.178-.341.322-.625.423a6.36 6.36 0 0 1-1.169.275c-.485.064-1.106.11-1.851.11-.744 0-1.367-.047-1.852-.11a6.847 6.847 0 0 1-1.193-.275c-.303-.101-.508-.245-.625-.423a1.085 1.085 0 0 1-.179-.63V3.316c0-1.193.313-2.042.94-2.553.626-.508 1.323-.762 2.105-.762h12.39c1.257 0 2.453.05 3.607.161 1.145.101 2.507.325 4.064.668 1.57.342 3.168.986 4.796 1.924 1.625.939 3.002 2.097 4.135 3.467 1.138 1.374 2.009 2.96 2.618 4.766.614 1.806.923 3.794.923 5.97zm-8.102.627c0-2.356-.44-4.321-1.324-5.898-.876-1.583-1.966-2.766-3.264-3.54-1.298-.774-2.639-1.269-4.022-1.475a28.004 28.004 0 0 0-4.055-.313h-7.112v23.218h6.936c2.326 0 4.258-.299 5.791-.896 1.536-.6 2.829-1.417 3.869-2.479 1.044-1.06 1.838-2.326 2.377-3.801.533-1.475.804-3.083.804-4.816zm26.31 39.115c0 .236-.058.447-.178.621s-.326.318-.626.419c-.295.107-.684.194-1.179.271-.482.073-1.104.107-1.844.107-.71 0-1.32-.034-1.823-.107-.508-.077-.91-.165-1.2-.271-.296-.101-.508-.245-.627-.419a1.118 1.118 0 0 1-.174-.621V1.427c0-.241.068-.45.195-.625.135-.174.355-.318.672-.415.309-.106.71-.202 1.197-.271a12.453 12.453 0 0 1 1.76-.114c.739 0 1.361.043 1.844.114.495.069.883.165 1.179.271.3.097.507.241.626.415.12.176.178.384.178.625v55.272zm44.244-1.877c0 .587-.026 1.09-.084 1.492-.061.402-.157.753-.297 1.032-.13.282-.291.495-.486.621a1.16 1.16 0 0 1-.697.208h-25.596c-.685 0-1.327-.232-1.941-.697-.609-.462-.914-1.277-.914-2.44V1.435c0-.237.052-.449.175-.626.123-.178.329-.322.622-.423a6.653 6.653 0 0 1 1.214-.271 13.283 13.283 0 0 1 1.838-.114c.74 0 1.357.043 1.852.114a6.43 6.43 0 0 1 1.184.271c.299.101.508.245.625.423.121.178.182.39.182.626v50.07h20.758c.276 0 .508.067.697.204.195.131.356.327.486.58.14.254.237.587.297 1.01.059.414.085.921.085 1.523zm52.425-26.452c0 4.551-.539 8.666-1.615 12.329-1.075 3.657-2.68 6.77-4.817 9.345-2.131 2.565-4.812 4.541-8.033 5.921-3.222 1.382-6.991 2.07-11.282 2.07-4.242 0-7.911-.63-11.003-1.888-3.091-1.269-5.653-3.104-7.671-5.519-2.017-2.406-3.522-5.4-4.508-8.972-.987-3.575-1.488-7.684-1.488-12.327 0-4.444.545-8.479 1.615-12.119 1.074-3.625 2.69-6.714 4.841-9.257 2.148-2.545 4.834-4.498 8.061-5.878 3.226-1.378 6.98-2.072 11.281-2.072 4.153 0 7.768.626 10.851 1.873 3.074 1.252 5.638 3.075 7.689 5.467 2.044 2.399 3.566 5.362 4.57 8.888 1.002 3.527 1.509 7.573 1.509 12.139zm-7.927.521c0-3.197-.288-6.166-.851-8.915-.57-2.739-1.514-5.121-2.833-7.142-1.318-2.016-3.083-3.597-5.285-4.73-2.204-1.126-4.935-1.696-8.184-1.696-3.248 0-5.975.612-8.182 1.829-2.203 1.223-3.993 2.842-5.371 4.877-1.382 2.038-2.365 4.412-2.96 7.123-.597 2.72-.892 5.573-.892 8.563 0 3.311.274 6.361.828 9.156.55 2.778 1.481 5.185 2.781 7.2 1.309 2.023 3.059 3.595 5.245 4.708 2.188 1.12 4.938 1.679 8.254 1.679 3.272 0 6.03-.609 8.266-1.832 2.229-1.221 4.03-2.862 5.393-4.942 1.36-2.081 2.334-4.483 2.912-7.206.582-2.73.879-5.624.879-8.672zm52.865-25.575c0 .558-.03 1.058-.093 1.472-.055.424-.156.757-.293 1.011-.132.25-.294.436-.487.558a1.212 1.212 0 0 1-.646.177h-16.283v50.202c0 .245-.064.449-.192.63-.113.178-.321.322-.62.423-.3.103-.693.198-1.189.275-.485.064-1.108.11-1.857.11a14.82 14.82 0 0 1-1.831-.11 6.975 6.975 0 0 1-1.208-.275c-.298-.101-.508-.245-.624-.423a1.1 1.1 0 0 1-.18-.63V6.534h-16.296c-.229 0-.444-.058-.638-.177a1.316 1.316 0 0 1-.476-.558 4.492 4.492 0 0 1-.289-1.011 8.26 8.26 0 0 1-.11-1.472c0-.57.034-1.069.11-1.499.075-.437.178-.787.289-1.053.121-.263.28-.462.476-.584a1.25 1.25 0 0 1 .638-.178h40.28c.238 0 .45.064.646.178.193.122.355.322.487.584.137.266.237.616.293 1.053.063.43.093.929.093 1.499z"/><path class="st2" d="M0 0v25.665s19.433 9.25 29.297 25.788c0 0 4.352-36.523 28.785-51.453H0z"/><linearGradient id="SVGID_1_" gradientUnits="userSpaceOnUse" x1="29.041" y1="58.174" x2="29.041" y2="24.994"><stop offset="0" stop-color="#e37a27"/><stop offset=".472" stop-color="#f9a220"/></linearGradient><path class="st3" d="M0 46.811v11.363h26.11S16.163 47.582 0 46.811zm33.118 11.363h24.964v-33.18c-14.128 3.827-24.964 33.18-24.964 33.18z"/><linearGradient id="SVGID_2_" gradientUnits="userSpaceOnUse" x1="28.926" y1="22.656" x2="28.926" y2=".382"><stop offset="0" stop-color="#fff"/><stop offset="1" stop-color="#f9a220"/></linearGradient><path class="st4" d="M.388.388L57.465.382s-9.366 3.308-19.46 21.915c0 0-22.076 2.246-37.564-4.496L.388.388z"/><linearGradient id="SVGID_3_" gradientUnits="userSpaceOnUse" x1="29.041" y1=".23" x2="29.041" y2="57.944"><stop offset="0" stop-color="#4a484a"/><stop offset="1"/></linearGradient><path class="st5" d="M29.297 51.453C19.433 34.915 0 25.665 0 25.665v21.146c16.128.794 26.11 11.363 26.11 11.363h7.008s10.836-29.353 24.964-33.18V0l-.074.045C33.641 15.003 29.297 51.453 29.297 51.453z"/></g></svg>