<?xml version="1.0" encoding="utf-8"?>
<!-- Generator: Adobe Illustrator 19.2.0, SVG Export Plug-In . SVG Version: 6.00 Build 0)  -->
<svg version="1.1" id="Слой_1" xmlns="http://www.w3.org/2000/svg" xmlns:xlink="http://www.w3.org/1999/xlink" x="0px" y="0px"
	 viewBox="0 0 680.8 217.5" style="enable-background:new 0 0 680.8 217.5;" xml:space="preserve">
<style type="text/css">
	.st0{fill:#0DE5A0;}
	.st1{fill:#FCB310;}
</style>
<g>
	<g>
		<g>
			<path class="st0" d="M81.5,84.6l20-16.4h71.1c3.6,0,6.3-0.6,7.9-1.8c1.7-1.2,2.5-2.9,2.5-5.3v-8.6c0-2.3-0.8-4.1-2.5-5.3
				c-1.7-1.2-4.3-1.8-7.9-1.8h-47.3c-15.8,0-23.8-6-23.8-18V17.2c0-10.7,7.8-16,23.5-16h74.2v16.4h-74.7c-2.4,0-4.1,0.2-5,0.7
				c-0.9,0.5-1.3,1.3-1.3,2.3v5c0,1.4,0.4,2.3,1.3,2.9c0.9,0.6,2.6,0.8,5.1,0.8h47.9c5,0,9.2,0.5,12.7,1.5c3.5,1,6.3,2.4,8.4,4.4
				c2.1,1.9,3.6,4.3,4.6,7.1c1,2.8,1.4,6.1,1.4,9.8v9.9c0,3.7-0.5,6.9-1.4,9.8c-1,2.8-2.5,5.2-4.6,7.1c-2.1,1.9-4.9,3.4-8.4,4.4
				c-3.5,1-7.7,1.5-12.7,1.5H81.5z"/>
			<path class="st0" d="M215.5,84.6V1.1h16.1v31.4h9.8l49.9-31.4h30.6l-64.3,38.6l68.2,44.9H296L241.4,47h-9.8v37.6H215.5z"/>
			<path class="st0" d="M331,84.6V1.1h18.1v83.5H331z"/>
			<path class="st0" d="M366.7,84.6V8.4c0-2.6,0.8-4.7,2.3-6.2c1.5-1.5,3.3-2.2,5.3-2.2c0.9,0,1.8,0.2,2.8,0.5
				c1,0.3,1.8,0.8,2.7,1.5L451.7,61V1.1h16.1v76.3c0,2.6-0.8,4.7-2.3,6.2c-1.5,1.5-3.3,2.2-5.3,2.2c-0.9,0-1.8-0.2-2.8-0.5
				c-1-0.3-1.9-0.8-2.7-1.5l-72.1-59.1v59.9H366.7z"/>
			<path class="st0" d="M484,84.6V68.3h71.1c3.6,0,6.3-0.6,7.9-1.8c1.7-1.2,2.5-2.9,2.5-5.3v-8.6c0-2.3-0.8-4.1-2.5-5.3
				c-1.7-1.2-4.3-1.8-7.9-1.8h-47.3c-15.8,0-23.8-6-23.8-18V17.2c0-10.7,7.8-16,23.5-16h91.2l-20,16.4H507c-2.4,0-4.1,0.2-5,0.7
				c-0.9,0.5-1.3,1.3-1.3,2.3v5c0,1.4,0.4,2.3,1.3,2.9c0.9,0.6,2.6,0.8,5.1,0.8H555c5,0,9.2,0.5,12.7,1.5c3.5,1,6.3,2.4,8.4,4.4
				c2.1,1.9,3.6,4.3,4.6,7.1c1,2.8,1.4,6.1,1.4,9.8v9.9c0,3.7-0.5,6.9-1.4,9.8c-1,2.8-2.5,5.2-4.6,7.1c-2.1,1.9-4.9,3.4-8.4,4.4
				c-3.5,1-7.7,1.5-12.7,1.5H484z"/>
		</g>
	</g>
	<g>
		<path class="st1" d="M145.7,217.5c-5,0-9.3-0.5-12.7-1.5c-3.4-1-6.2-2.4-8.3-4.4c-2.1-1.9-3.6-4.3-4.6-7.1c-1-2.8-1.4-6.1-1.4-9.8
			v-38.1c0-3.7,0.5-6.9,1.4-9.8c1-2.8,2.5-5.2,4.6-7.1c2.1-1.9,4.9-3.4,8.3-4.4c3.4-1,7.7-1.5,12.7-1.5h73.8v16.4h-73.9
			c-3.6,0-6.3,0.6-7.9,1.8c-1.7,1.2-2.5,2.9-2.5,5.3v36.7c0,2.3,0.8,4.1,2.5,5.3c1.7,1.2,4.3,1.8,7.9,1.8h74.2v16.4H145.7z"/>
		<path class="st1" d="M231.6,217.5v-55.1c0-9.1,2.6-16.1,7.8-21c5.2-4.9,13.1-7.3,23.9-7.3h37.9c10.7,0,18.7,2.4,23.9,7.3
			c5.2,4.9,7.8,11.9,7.8,21v55.1h-16.1v-26.7h-69v26.7H231.6z M247.7,175.6h69v-13.2c0-2-0.2-3.8-0.7-5.3c-0.5-1.5-1.3-2.7-2.6-3.7
			c-1.2-1-2.8-1.8-4.8-2.3c-2-0.5-4.5-0.7-7.6-0.7h-37.6c-3,0-5.6,0.2-7.6,0.7c-2,0.5-3.6,1.2-4.8,2.3c-1.2,1-2.1,2.3-2.6,3.7
			c-0.5,1.5-0.7,3.2-0.7,5.3V175.6z"/>
		<path class="st1" d="M346.8,217.5v-16.4h71.1c3.6,0,6.3-0.6,7.9-1.8c1.7-1.2,2.5-2.9,2.5-5.3v-8.6c0-2.3-0.8-4.1-2.5-5.3
			c-1.7-1.2-4.3-1.8-7.9-1.8h-47.3c-15.8,0-23.8-6-23.8-18V150c0-10.7,7.8-16,23.5-16h71.2v16.4h-71.7c-2.4,0-4.1,0.2-5,0.7
			c-0.9,0.5-1.3,1.3-1.3,2.3v5c0,1.4,0.4,2.3,1.3,2.9c0.9,0.6,2.6,0.8,5.1,0.8h47.9c5,0,9.2,0.5,12.7,1.5c3.5,1,6.3,2.4,8.4,4.4
			c2.1,1.9,3.6,4.3,4.6,7.1c1,2.8,1.4,6.1,1.4,9.8v9.9c0,3.7-0.5,6.9-1.4,9.8c-1,2.8-2.5,5.2-4.6,7.1c-2.1,1.9-4.9,3.4-8.4,4.4
			c-3.5,1-7.7,1.5-12.7,1.5H346.8z"/>
		<path class="st1" d="M458.8,217.5V134h16.1v26.8H544V134h16.1v83.5H544V176h-69.1v41.5H458.8z"/>
	</g>
	<g>
		<g>
			<g>
				<g>
					<path class="st1" d="M322.3,105.9H10l-10,7.2h322.3c-0.2-1.2-0.4-2.4-0.4-3.6C321.9,108.3,322,107.1,322.3,105.9z"/>
				</g>
			</g>
			<g>
				<g>
					<path class="st1" d="M358.5,105.9c0.2,1.2,0.4,2.4,0.4,3.6c0,1.2-0.1,2.4-0.4,3.6h312.4l10-7.2H358.5z"/>
				</g>
			</g>
		</g>
		<circle class="st0" cx="340.4" cy="109.8" r="10.5"/>
	</g>
</g>
</svg>
